<svg xmlns="http://www.w3.org/2000/svg">
  <symbol id="logo-desktop">
    <path d="M27.7339 0L22.0582 17.0732H17.7457L13.9289 5.51219L9.98817 17.0732H5.70045L0 0H4.1638L8.07976 12L12.1692 0H15.8869L19.8524 12.0976L23.8923 0H27.7339Z" fill="#141517"/>
    <path d="M34.0886 3.7561C36.154 3.7561 37.7402 4.2439 38.8473 5.21951C39.9543 6.17886 40.5078 7.63414 40.5078 9.58536V17.0732H36.8893V15.439C36.1623 16.6585 34.8074 17.2683 32.8246 17.2683C31.8002 17.2683 30.9079 17.0976 30.1479 16.7561C29.4043 16.4146 28.8343 15.9431 28.4378 15.3415C28.0412 14.7398 27.8429 14.0569 27.8429 13.2927C27.8429 12.0732 28.3056 11.1138 29.2309 10.4146C30.1727 9.71545 31.6184 9.36585 33.5681 9.36585H36.6414C36.6414 8.53658 36.3853 7.90244 35.8731 7.46342C35.3609 7.00813 34.5926 6.78049 33.5681 6.78049C32.8577 6.78049 32.1554 6.89431 31.4615 7.12195C30.784 7.33333 30.2057 7.62602 29.7265 8L28.3386 5.34146C29.0656 4.8374 29.9331 4.44715 30.941 4.17073C31.9654 3.89431 33.0146 3.7561 34.0886 3.7561ZM33.7912 14.7073C34.4521 14.7073 35.0387 14.561 35.5509 14.2683C36.0631 13.9593 36.4266 13.5122 36.6414 12.9268V11.5854H33.9895C32.4033 11.5854 31.6102 12.0976 31.6102 13.122C31.6102 13.6098 31.8002 14 32.1802 14.2927C32.5768 14.5691 33.1138 14.7073 33.7912 14.7073Z" fill="#141517"/>
    <path d="M57 3.95122L50.9774 17.878C50.366 19.3902 49.6059 20.4553 48.6972 21.0732C47.8049 21.6911 46.7227 22 45.4504 22C44.7564 22 44.0707 21.8943 43.3933 21.6829C42.7158 21.4715 42.1623 21.1789 41.7327 20.8049L43.1454 18.0976C43.4429 18.3577 43.7816 18.561 44.1616 18.7073C44.5582 18.8537 44.9465 18.9268 45.3265 18.9268C45.8552 18.9268 46.2848 18.7967 46.6153 18.5366C46.9457 18.2927 47.2432 17.878 47.5075 17.2927L47.5571 17.1707L41.7823 3.95122H45.7726L49.5151 12.8537L53.2823 3.95122H57Z" fill="#141517"/>
    <path d="M57.0173 3.9502L50.9946 17.877C50.3833 19.3892 49.6232 20.4543 48.7145 21.0721C47.8222 21.69 46.74 21.999 45.4677 21.999C44.7737 21.999 44.088 21.8933 43.4106 21.6819C42.7331 21.4705 42.1796 21.1778 41.75 20.8039L43.1627 18.0965C43.4601 18.3567 43.7989 18.5599 44.1789 18.7063C44.5754 18.8526 44.9637 18.9258 45.3438 18.9258C45.8725 18.9258 46.3021 18.7957 46.6326 18.5356C46.963 18.2917 47.2604 17.877 47.5248 17.2917L47.5744 17.1697L49.5323 12.8526L53.2996 3.9502H57.0173Z" fill="#FE7865"/>
  </symbol>
  <symbol id="logo-tablet">
    <path d="M21.4021 0.51123L17.0223 13.6865H13.6943L10.7489 4.76497L7.70783 13.6865H4.39901L0 0.51123H3.21319L6.23512 9.77158L9.39093 0.51123H12.2599L15.32 9.84687L18.4376 0.51123H21.4021Z" fill="#141517"/>
    <path d="M26.3061 3.40979C27.8999 3.40979 29.124 3.78623 29.9783 4.53911C30.8326 5.27943 31.2597 6.40247 31.2597 7.90822V13.6865H28.4673V12.4255C27.9063 13.3666 26.8607 13.8371 25.3306 13.8371C24.5401 13.8371 23.8515 13.7053 23.265 13.4418C22.6912 13.1783 22.2513 12.8144 21.9453 12.3502C21.6393 11.8859 21.4863 11.3589 21.4863 10.7691C21.4863 9.82805 21.8433 9.08772 22.5573 8.54816C23.2841 8.0086 24.3998 7.73882 25.9044 7.73882H28.276C28.276 7.09888 28.0784 6.60951 27.6831 6.27072C27.2879 5.91938 26.6949 5.7437 25.9044 5.7437C25.3561 5.7437 24.8142 5.83154 24.2787 6.00721C23.7559 6.17033 23.3096 6.3962 22.9399 6.6848L21.8688 4.63322C22.4298 4.24423 23.0992 3.94308 23.877 3.72977C24.6676 3.51645 25.4773 3.40979 26.3061 3.40979ZM26.0765 11.8608C26.5866 11.8608 27.0392 11.7479 27.4345 11.522C27.8298 11.2836 28.1103 10.9385 28.276 10.4868V9.45161H26.2295C25.0055 9.45161 24.3934 9.84687 24.3934 10.6374C24.3934 11.0138 24.5401 11.315 24.8333 11.5408C25.1394 11.7541 25.5538 11.8608 26.0765 11.8608Z" fill="#141517"/>
    <path d="M43.9867 3.56037L39.339 14.3076C38.8672 15.4746 38.2807 16.2965 37.5794 16.7733C36.8909 17.2501 36.0557 17.4885 35.0739 17.4885C34.5384 17.4885 34.0092 17.407 33.4864 17.2439C32.9636 17.0807 32.5365 16.8549 32.205 16.5663L33.2952 14.477C33.5247 14.6778 33.7861 14.8347 34.0793 14.9476C34.3853 15.0605 34.685 15.117 34.9783 15.117C35.3863 15.117 35.7178 15.0166 35.9728 14.8158C36.2278 14.6276 36.4573 14.3076 36.6614 13.8559L36.6996 13.7618L32.2432 3.56037H35.3225L38.2106 10.4303L41.1177 3.56037H43.9867Z" fill="#141517"/>
    <path d="M44 3.55957L39.3523 14.3068C38.8805 15.4738 38.294 16.2957 37.5927 16.7725C36.9042 17.2493 36.069 17.4877 35.0872 17.4877C34.5516 17.4877 34.0225 17.4062 33.4997 17.2431C32.9769 17.0799 32.5498 16.8541 32.2183 16.5655L33.3084 14.4762C33.538 14.677 33.7994 14.8339 34.0926 14.9468C34.3986 15.0597 34.6983 15.1162 34.9916 15.1162C35.3996 15.1162 35.7311 15.0158 35.9861 14.815C36.2411 14.6268 36.4706 14.3068 36.6747 13.8551L36.7129 13.761L38.2239 10.4295L41.131 3.55957H44Z" fill="#FE7865"/>
  </symbol>
</svg>
